<svg width="148" height="39" viewBox="0 0 148 39" fill="none" xmlns="http://www.w3.org/2000/svg">
<path d="M39.448 30C39.288 30 39.152 29.944 39.04 29.832C38.928 29.72 38.872 29.584 38.872 29.424V13.8C38.872 13.624 38.928 13.48 39.04 13.368C39.152 13.256 39.288 13.2 39.448 13.2H49.864C50.04 13.2 50.184 13.256 50.296 13.368C50.408 13.48 50.464 13.624 50.464 13.8V15.48C50.464 15.656 50.408 15.8 50.296 15.912C50.184 16.008 50.04 16.056 49.864 16.056H42.16V20.616H49.384C49.56 20.616 49.704 20.672 49.816 20.784C49.928 20.896 49.984 21.04 49.984 21.216V22.896C49.984 23.056 49.928 23.192 49.816 23.304C49.704 23.416 49.56 23.472 49.384 23.472H42.16V29.424C42.16 29.584 42.104 29.72 41.992 29.832C41.88 29.944 41.736 30 41.56 30H39.448ZM57.4426 30.24C56.4666 30.24 55.6186 30.024 54.8986 29.592C54.1946 29.144 53.6506 28.52 53.2666 27.72C52.8826 26.904 52.6906 25.944 52.6906 24.84V18.096C52.6906 17.936 52.7466 17.8 52.8586 17.688C52.9706 17.576 53.1066 17.52 53.2666 17.52H55.3786C55.5546 17.52 55.6906 17.576 55.7866 17.688C55.8986 17.8 55.9546 17.936 55.9546 18.096V24.696C55.9546 26.68 56.8266 27.672 58.5706 27.672C59.4026 27.672 60.0586 27.408 60.5386 26.88C61.0346 26.352 61.2826 25.624 61.2826 24.696V18.096C61.2826 17.936 61.3386 17.8 61.4506 17.688C61.5626 17.576 61.6986 17.52 61.8586 17.52H63.9706C64.1306 17.52 64.2666 17.576 64.3786 17.688C64.4906 17.8 64.5466 17.936 64.5466 18.096V29.424C64.5466 29.584 64.4906 29.72 64.3786 29.832C64.2666 29.944 64.1306 30 63.9706 30H62.0266C61.8506 30 61.7066 29.944 61.5946 29.832C61.4986 29.72 61.4506 29.584 61.4506 29.424V28.44C61.0186 29 60.4826 29.44 59.8426 29.76C59.2026 30.08 58.4026 30.24 57.4426 30.24ZM68.2928 30C68.1328 30 67.9968 29.944 67.8848 29.832C67.7728 29.72 67.7168 29.584 67.7168 29.424V18.12C67.7168 17.944 67.7728 17.8 67.8848 17.688C67.9968 17.576 68.1328 17.52 68.2928 17.52H70.2368C70.3968 17.52 70.5328 17.576 70.6448 17.688C70.7728 17.8 70.8368 17.944 70.8368 18.12V19.104C71.2048 18.592 71.6768 18.2 72.2528 17.928C72.8448 17.656 73.5248 17.52 74.2928 17.52H75.2768C75.4528 17.52 75.5888 17.576 75.6848 17.688C75.7968 17.8 75.8528 17.936 75.8528 18.096V19.824C75.8528 19.984 75.7968 20.12 75.6848 20.232C75.5888 20.344 75.4528 20.4 75.2768 20.4H73.4048C72.6368 20.4 72.0368 20.616 71.6048 21.048C71.1888 21.48 70.9808 22.072 70.9808 22.824V29.424C70.9808 29.584 70.9248 29.72 70.8128 29.832C70.7008 29.944 70.5568 30 70.3808 30H68.2928ZM78.3006 30C78.1406 30 78.0046 29.944 77.8926 29.832C77.7806 29.72 77.7246 29.584 77.7246 29.424V18.096C77.7246 17.936 77.7806 17.8 77.8926 17.688C78.0046 17.576 78.1406 17.52 78.3006 17.52H80.2686C80.4286 17.52 80.5646 17.576 80.6766 17.688C80.7886 17.8 80.8446 17.936 80.8446 18.096V19.08C81.2606 18.568 81.7886 18.144 82.4286 17.808C83.0846 17.456 83.8926 17.28 84.8526 17.28C85.8286 17.28 86.6766 17.504 87.3966 17.952C88.1166 18.384 88.6686 19 89.0526 19.8C89.4526 20.6 89.6526 21.56 89.6526 22.68V29.424C89.6526 29.584 89.5966 29.72 89.4846 29.832C89.3726 29.944 89.2366 30 89.0766 30H86.9646C86.8046 30 86.6686 29.944 86.5566 29.832C86.4446 29.72 86.3886 29.584 86.3886 29.424V22.824C86.3886 21.896 86.1566 21.168 85.6926 20.64C85.2446 20.112 84.5886 19.848 83.7246 19.848C82.8926 19.848 82.2286 20.112 81.7326 20.64C81.2366 21.168 80.9886 21.896 80.9886 22.824V29.424C80.9886 29.584 80.9326 29.72 80.8206 29.832C80.7086 29.944 80.5726 30 80.4126 30H78.3006ZM93.2772 30C93.1172 30 92.9812 29.944 92.8692 29.832C92.7572 29.72 92.7012 29.584 92.7012 29.424V18.096C92.7012 17.936 92.7572 17.8 92.8692 17.688C92.9812 17.576 93.1172 17.52 93.2772 17.52H95.2692C95.4452 17.52 95.5812 17.576 95.6772 17.688C95.7892 17.8 95.8452 17.936 95.8452 18.096V29.424C95.8452 29.584 95.7892 29.72 95.6772 29.832C95.5812 29.944 95.4452 30 95.2692 30H93.2772ZM93.1812 15.456C93.0052 15.456 92.8612 15.408 92.7492 15.312C92.6532 15.2 92.6052 15.056 92.6052 14.88V13.152C92.6052 12.992 92.6532 12.856 92.7492 12.744C92.8612 12.632 93.0052 12.576 93.1812 12.576H95.3652C95.5412 12.576 95.6852 12.632 95.7972 12.744C95.9092 12.856 95.9652 12.992 95.9652 13.152V14.88C95.9652 15.056 95.9092 15.2 95.7972 15.312C95.6852 15.408 95.5412 15.456 95.3652 15.456H93.1812ZM99.6293 30C99.4693 30 99.3333 29.944 99.2213 29.832C99.1093 29.72 99.0533 29.584 99.0533 29.424V13.536C99.0533 13.376 99.1093 13.24 99.2213 13.128C99.3333 13.016 99.4693 12.96 99.6293 12.96H101.573C101.749 12.96 101.885 13.016 101.981 13.128C102.093 13.24 102.149 13.376 102.149 13.536V21.744L106.181 17.928C106.325 17.8 106.453 17.704 106.565 17.64C106.677 17.56 106.845 17.52 107.069 17.52H109.301C109.461 17.52 109.589 17.568 109.685 17.664C109.781 17.76 109.829 17.888 109.829 18.048C109.829 18.112 109.813 18.184 109.781 18.264C109.749 18.344 109.685 18.416 109.589 18.48L104.645 23.112L110.189 29.064C110.349 29.224 110.429 29.36 110.429 29.472C110.429 29.632 110.373 29.76 110.261 29.856C110.165 29.952 110.045 30 109.901 30H107.621C107.381 30 107.205 29.968 107.093 29.904C106.997 29.824 106.877 29.72 106.733 29.592L102.149 24.768V29.424C102.149 29.584 102.093 29.72 101.981 29.832C101.885 29.944 101.749 30 101.573 30H99.6293ZM112.801 30C112.641 30 112.505 29.944 112.393 29.832C112.281 29.72 112.225 29.584 112.225 29.424V18.096C112.225 17.936 112.281 17.8 112.393 17.688C112.505 17.576 112.641 17.52 112.801 17.52H114.793C114.969 17.52 115.105 17.576 115.201 17.688C115.313 17.8 115.369 17.936 115.369 18.096V29.424C115.369 29.584 115.313 29.72 115.201 29.832C115.105 29.944 114.969 30 114.793 30H112.801ZM112.705 15.456C112.529 15.456 112.385 15.408 112.273 15.312C112.177 15.2 112.129 15.056 112.129 14.88V13.152C112.129 12.992 112.177 12.856 112.273 12.744C112.385 12.632 112.529 12.576 112.705 12.576H114.889C115.065 12.576 115.209 12.632 115.321 12.744C115.433 12.856 115.489 12.992 115.489 13.152V14.88C115.489 15.056 115.433 15.2 115.321 15.312C115.209 15.408 115.065 15.456 114.889 15.456H112.705ZM119.621 30C119.461 30 119.325 29.944 119.213 29.832C119.101 29.72 119.045 29.584 119.045 29.424V18.096C119.045 17.936 119.101 17.8 119.213 17.688C119.325 17.576 119.461 17.52 119.621 17.52H121.589C121.749 17.52 121.885 17.576 121.997 17.688C122.109 17.8 122.165 17.936 122.165 18.096V19.08C122.581 18.568 123.109 18.144 123.749 17.808C124.405 17.456 125.213 17.28 126.173 17.28C127.149 17.28 127.997 17.504 128.717 17.952C129.437 18.384 129.989 19 130.373 19.8C130.773 20.6 130.973 21.56 130.973 22.68V29.424C130.973 29.584 130.917 29.72 130.805 29.832C130.693 29.944 130.557 30 130.397 30H128.285C128.125 30 127.989 29.944 127.877 29.832C127.765 29.72 127.709 29.584 127.709 29.424V22.824C127.709 21.896 127.477 21.168 127.013 20.64C126.565 20.112 125.909 19.848 125.045 19.848C124.213 19.848 123.549 20.112 123.053 20.64C122.557 21.168 122.309 21.896 122.309 22.824V29.424C122.309 29.584 122.253 29.72 122.141 29.832C122.029 29.944 121.893 30 121.733 30H119.621ZM139.662 35.28C138.494 35.28 137.534 35.128 136.782 34.824C136.03 34.52 135.438 34.152 135.006 33.72C134.574 33.288 134.262 32.856 134.07 32.424C133.894 32.008 133.798 31.68 133.782 31.44C133.766 31.28 133.814 31.136 133.926 31.008C134.054 30.896 134.198 30.84 134.358 30.84H136.446C136.606 30.84 136.734 30.872 136.83 30.936C136.926 31.016 137.006 31.152 137.07 31.344C137.166 31.552 137.294 31.776 137.454 32.016C137.614 32.256 137.854 32.456 138.174 32.616C138.51 32.792 138.966 32.88 139.542 32.88C140.15 32.88 140.662 32.792 141.078 32.616C141.494 32.44 141.806 32.144 142.014 31.728C142.238 31.312 142.35 30.736 142.35 30V28.368C141.966 28.832 141.47 29.208 140.862 29.496C140.27 29.784 139.534 29.928 138.654 29.928C137.79 29.928 137.046 29.792 136.422 29.52C135.798 29.232 135.278 28.84 134.862 28.344C134.446 27.832 134.126 27.232 133.902 26.544C133.694 25.856 133.574 25.096 133.542 24.264C133.526 23.832 133.526 23.4 133.542 22.968C133.574 22.168 133.694 21.424 133.902 20.736C134.11 20.048 134.422 19.448 134.838 18.936C135.27 18.408 135.798 18 136.422 17.712C137.046 17.424 137.79 17.28 138.654 17.28C139.566 17.28 140.334 17.456 140.958 17.808C141.582 18.144 142.094 18.568 142.494 19.08V18.12C142.494 17.944 142.55 17.8 142.662 17.688C142.774 17.576 142.91 17.52 143.07 17.52H145.014C145.174 17.52 145.31 17.576 145.422 17.688C145.534 17.8 145.59 17.944 145.59 18.12L145.614 29.688C145.614 30.84 145.398 31.832 144.966 32.664C144.534 33.496 143.878 34.136 142.998 34.584C142.134 35.048 141.022 35.28 139.662 35.28ZM139.542 27.384C140.198 27.384 140.726 27.24 141.126 26.952C141.526 26.664 141.822 26.288 142.014 25.824C142.206 25.36 142.318 24.888 142.35 24.408C142.366 24.2 142.374 23.936 142.374 23.616C142.374 23.296 142.366 23.04 142.35 22.848C142.318 22.352 142.206 21.88 142.014 21.432C141.822 20.968 141.526 20.592 141.126 20.304C140.726 20 140.198 19.848 139.542 19.848C138.886 19.848 138.358 20 137.958 20.304C137.558 20.592 137.27 20.976 137.094 21.456C136.934 21.936 136.838 22.464 136.806 23.04C136.774 23.424 136.774 23.816 136.806 24.216C136.838 24.776 136.934 25.304 137.094 25.8C137.27 26.28 137.558 26.664 137.958 26.952C138.358 27.24 138.886 27.384 139.542 27.384Z" fill="#555555"/>
<path d="M5.96954 6.94641C6.61481 6.94641 7.14111 6.42011 7.14111 5.77484C7.14111 5.12958 6.61481 4.60327 5.96954 4.60327C5.32428 4.60327 4.79797 5.12958 4.79797 5.77484C4.79797 6.42371 5.32428 6.94641 5.96954 6.94641Z" fill="#85B839"/>
<path d="M9.59605 24.7833V27.0327C11.4201 25.7098 13.5974 24.9852 15.8937 24.9852C18.1864 24.9852 20.3673 25.7098 22.1913 27.0327V24.7833C22.1913 22.8944 23.1394 21.2253 24.5777 20.2196C24.4552 17.8476 22.4941 15.9551 20.0933 15.9551H11.6941C9.29325 15.9551 7.33222 17.8476 7.20966 20.2196C8.64798 21.2253 9.59605 22.8944 9.59605 24.7833Z" fill="#85B839"/>
<path d="M22.8222 12.5305H8.91473V14.4267H22.8222V12.5305Z" fill="#85B839"/>
<path d="M22.1913 29.0262C20.4754 27.4185 18.2548 26.5281 15.8937 26.5281C13.5325 26.5281 11.3119 27.4185 9.59601 29.0262V31.081H22.1913V29.0262Z" fill="#85B839"/>
<path d="M25.551 6.94641C26.1963 6.94641 26.7226 6.42011 26.7226 5.77484C26.7226 5.12958 26.1963 4.60327 25.551 4.60327C24.9058 4.60327 24.3795 5.12958 24.3795 5.77484C24.3795 6.42371 24.9058 6.94641 25.551 6.94641Z" fill="#85B839"/>
<path d="M15.9117 3.77786C16.9535 3.77786 17.8006 2.93073 17.8006 1.88893C17.8006 0.847135 16.9535 0 15.9117 0C14.8699 0 14.0228 0.847135 14.0228 1.88893C14.0228 2.93073 14.8699 3.77786 15.9117 3.77786Z" fill="#85B839"/>
<path d="M27.7608 20.7566C25.5402 20.7566 23.7342 22.5626 23.7342 24.7832V32.6201H8.05319V24.7832C8.05319 22.5626 6.24717 20.7566 4.0266 20.7566C1.80602 20.7566 0 22.5626 0 24.7832C0 27.0038 1.80602 28.8098 4.0266 28.8098H4.79803V35.8789H26.9894V28.8098H27.7608C29.9814 28.8098 31.7874 27.0038 31.7874 24.7832C31.7874 22.5626 29.9814 20.7566 27.7608 20.7566ZM4.0266 26.0341C3.33447 26.0341 2.77572 25.4753 2.77572 24.7832C2.77572 24.0911 3.33807 23.5323 4.0266 23.5323C4.71872 23.5323 5.27747 24.0911 5.27747 24.7832C5.27747 25.4753 4.71872 26.0341 4.0266 26.0341ZM27.7608 26.0341C27.0687 26.0341 26.5099 25.4753 26.5099 24.7832C26.5099 24.0911 27.0687 23.5323 27.7608 23.5323C28.4529 23.5323 29.0117 24.0911 29.0117 24.7832C29.0117 25.4753 28.4529 26.0341 27.7608 26.0341Z" fill="#85B839"/>
<path d="M8.69839 10.9875H23.0348C23.8171 10.1404 24.383 9.14546 24.6966 8.0604C23.7702 8.54706 22.732 8.81742 21.665 8.81742C19.138 8.81742 16.9499 7.37549 15.8648 5.27026C14.7797 7.37188 12.588 8.81742 10.0646 8.81742C8.99398 8.81742 7.9594 8.55787 7.03656 8.07482C7.35739 9.15267 7.91974 10.144 8.69839 10.9875Z" fill="#85B839"/>
<path d="M9.59609 37.4219H8.05322V38.9647H9.59609V37.4219Z" fill="#85B839"/>
<path d="M23.7342 37.4219H22.1913V38.9647H23.7342V37.4219Z" fill="#85B839"/>
</svg>
