<svg width="14" height="13" viewBox="0 0 14 13" fill="none" xmlns="http://www.w3.org/2000/svg">
<path d="M5.87886 11.7193C6.06633 11.5318 6.17165 11.2775 6.17165 11.0123C6.17165 10.7471 6.06633 10.4928 5.87886 10.3053L2.58686 7.0123L12.9999 7.0053C13.2651 7.0053 13.5194 6.89994 13.707 6.71241C13.8945 6.52487 13.9999 6.27052 13.9999 6.0053C13.9999 5.74008 13.8945 5.48573 13.707 5.29819C13.5194 5.11066 13.2651 5.0053 12.9999 5.0053L2.58586 5.0123L5.87886 1.7193C5.97437 1.62705 6.05056 1.51671 6.10296 1.3947C6.15537 1.2727 6.18296 1.14148 6.18411 1.0087C6.18527 0.87592 6.15996 0.744242 6.10968 0.621346C6.0594 0.498449 5.98515 0.386797 5.89126 0.292904C5.79736 0.199011 5.68571 0.124757 5.56282 0.0744762C5.43992 0.0241954 5.30824 -0.00110613 5.17546 4.76837e-05C5.04268 0.0012015 4.91146 0.0287887 4.78946 0.0811977C4.66745 0.133607 4.55711 0.209788 4.46486 0.305298L0.878862 3.8903C0.600233 4.16888 0.379209 4.49962 0.228413 4.86363C0.0776167 5.22764 3.8147e-06 5.61779 3.8147e-06 6.0118C3.8147e-06 6.40581 0.0776167 6.79596 0.228413 7.15997C0.379209 7.52398 0.600233 7.85472 0.878862 8.1333L4.46486 11.7193C4.65239 11.9068 4.9067 12.0121 5.17186 12.0121C5.43703 12.0121 5.69133 11.9068 5.87886 11.7193V11.7193Z" fill="white"/>
</svg>
